<svg width="32" height="32" viewBox="0 0 32 32" fill="none" xmlns="http://www.w3.org/2000/svg">
<path fill-rule="evenodd" clip-rule="evenodd" d="M15.9998 29.3333C23.3638 29.3333 29.3332 23.364 29.3332 16C29.3332 8.63596 23.3638 2.66663 15.9998 2.66663C8.63584 2.66663 2.6665 8.63596 2.6665 16C2.6665 23.364 8.63584 29.3333 15.9998 29.3333ZM23.1612 11.78C23.2235 11.7157 23.2723 11.6395 23.3046 11.556C23.3369 11.4725 23.3521 11.3833 23.3491 11.2938C23.3462 11.2043 23.3253 11.1163 23.2876 11.035C23.2499 10.9538 23.1962 10.881 23.1298 10.821C23.0633 10.7609 22.9855 10.7149 22.9008 10.6856C22.8162 10.6563 22.7265 10.6444 22.6372 10.6505C22.5478 10.6566 22.4607 10.6807 22.3808 10.7213C22.301 10.7618 22.2301 10.8181 22.1725 10.8866L14.1865 19.7113L9.79317 15.5173C9.66534 15.3951 9.4942 15.3287 9.31742 15.3327C9.14063 15.3367 8.97268 15.4108 8.8505 15.5386C8.72833 15.6665 8.66194 15.8376 8.66594 16.0144C8.66994 16.1912 8.744 16.3591 8.87184 16.4813L13.7612 21.148L14.2565 21.6213L14.7158 21.1133L23.1612 11.78Z" fill="white"/>
</svg>
