<svg width="126" height="69" viewBox="0 0 126 69" fill="none" xmlns="http://www.w3.org/2000/svg">
<g filter="url(#filter0_i_101_67)">
<path d="M4.1499 40V5.00002H10.8499L25.7499 29.7H22.1999L36.8499 5.00002H43.4999L43.5999 40H35.9999L35.9499 16.65H37.3499L25.6499 36.3H21.9999L10.0499 16.65H11.7499V40H4.1499ZM71.1538 40.6C68.4538 40.6 65.9371 40.1667 63.6038 39.3C61.3038 38.4 59.3038 37.1333 57.6038 35.5C55.9038 33.8667 54.5705 31.95 53.6038 29.75C52.6705 27.55 52.2038 25.1333 52.2038 22.5C52.2038 19.8667 52.6705 17.45 53.6038 15.25C54.5705 13.05 55.9038 11.1333 57.6038 9.50002C59.3371 7.86672 61.3538 6.61672 63.6538 5.75002C65.9538 4.85002 68.4705 4.40002 71.2038 4.40002C74.2371 4.40002 76.9705 4.93332 79.4038 6.00002C81.8705 7.03332 83.9371 8.56673 85.6038 10.6L80.4038 15.4C79.2038 14.0333 77.8705 13.0167 76.4038 12.35C74.9371 11.65 73.3371 11.3 71.6038 11.3C69.9705 11.3 68.4705 11.5667 67.1038 12.1C65.7371 12.6333 64.5538 13.4 63.5538 14.4C62.5538 15.4 61.7705 16.5833 61.2038 17.95C60.6705 19.3167 60.4038 20.8333 60.4038 22.5C60.4038 24.1667 60.6705 25.6833 61.2038 27.05C61.7705 28.4167 62.5538 29.6 63.5538 30.6C64.5538 31.6 65.7371 32.3667 67.1038 32.9C68.4705 33.4333 69.9705 33.7 71.6038 33.7C73.3371 33.7 74.9371 33.3667 76.4038 32.7C77.8705 32 79.2038 30.95 80.4038 29.55L85.6038 34.35C83.9371 36.3833 81.8705 37.9333 79.4038 39C76.9705 40.0667 74.2205 40.6 71.1538 40.6ZM109.591 40.6C106.891 40.6 104.375 40.1667 102.041 39.3C99.7413 38.4 97.7413 37.1333 96.0413 35.5C94.3413 33.8667 93.008 31.95 92.0413 29.75C91.108 27.55 90.6413 25.1333 90.6413 22.5C90.6413 19.8667 91.108 17.45 92.0413 15.25C93.008 13.05 94.3413 11.1333 96.0413 9.50002C97.7746 7.86672 99.7913 6.61672 102.091 5.75002C104.391 4.85002 106.908 4.40002 109.641 4.40002C112.675 4.40002 115.408 4.93332 117.841 6.00002C120.308 7.03332 122.375 8.56673 124.041 10.6L118.841 15.4C117.641 14.0333 116.308 13.0167 114.841 12.35C113.375 11.65 111.775 11.3 110.041 11.3C108.408 11.3 106.908 11.5667 105.541 12.1C104.175 12.6333 102.991 13.4 101.991 14.4C100.991 15.4 100.208 16.5833 99.6413 17.95C99.108 19.3167 98.8413 20.8333 98.8413 22.5C98.8413 24.1667 99.108 25.6833 99.6413 27.05C100.208 28.4167 100.991 29.6 101.991 30.6C102.991 31.6 104.175 32.3667 105.541 32.9C106.908 33.4333 108.408 33.7 110.041 33.7C111.775 33.7 113.375 33.3667 114.841 32.7C116.308 32 117.641 30.95 118.841 29.55L124.041 34.35C122.375 36.3833 120.308 37.9333 117.841 39C115.408 40.0667 112.658 40.6 109.591 40.6Z" fill="url(#paint0_linear_101_67)"/>
</g>
<path d="M3.18799 56V47.6H4.45999L8.14399 53.732H7.45999L11.084 47.6H12.356L12.38 56H10.892L10.88 49.916H11.192L8.11999 55.04H7.42399L4.30399 49.916H4.66399V56H3.18799ZM17.4187 56.084C16.7627 56.084 16.1787 55.944 15.6667 55.664C15.1547 55.376 14.7507 54.984 14.4547 54.488C14.1587 53.992 14.0107 53.428 14.0107 52.796C14.0107 52.156 14.1587 51.592 14.4547 51.104C14.7507 50.608 15.1547 50.22 15.6667 49.94C16.1787 49.66 16.7627 49.52 17.4187 49.52C18.0827 49.52 18.6707 49.66 19.1827 49.94C19.7027 50.22 20.1067 50.604 20.3947 51.092C20.6907 51.58 20.8387 52.148 20.8387 52.796C20.8387 53.428 20.6907 53.992 20.3947 54.488C20.1067 54.984 19.7027 55.376 19.1827 55.664C18.6707 55.944 18.0827 56.084 17.4187 56.084ZM17.4187 54.8C17.7867 54.8 18.1147 54.72 18.4027 54.56C18.6907 54.4 18.9147 54.168 19.0747 53.864C19.2427 53.56 19.3267 53.204 19.3267 52.796C19.3267 52.38 19.2427 52.024 19.0747 51.728C18.9147 51.424 18.6907 51.192 18.4027 51.032C18.1147 50.872 17.7907 50.792 17.4307 50.792C17.0627 50.792 16.7347 50.872 16.4467 51.032C16.1667 51.192 15.9427 51.424 15.7747 51.728C15.6067 52.024 15.5227 52.38 15.5227 52.796C15.5227 53.204 15.6067 53.56 15.7747 53.864C15.9427 54.168 16.1667 54.4 16.4467 54.56C16.7347 54.72 17.0587 54.8 17.4187 54.8ZM22.3205 56V49.592H23.8205V52.196H27.0485V49.592H28.5485V56H27.0485V53.468H23.8205V56H22.3205ZM31.8908 56V50.504L32.2388 50.864H29.6348V49.592H35.6348V50.864H33.0428L33.3908 50.504V56H31.8908ZM40.6108 56V54.704L40.5268 54.428V52.16C40.5268 51.72 40.3948 51.38 40.1308 51.14C39.8668 50.892 39.4668 50.768 38.9308 50.768C38.5708 50.768 38.2148 50.824 37.8628 50.936C37.5188 51.048 37.2268 51.204 36.9868 51.404L36.3988 50.312C36.7428 50.048 37.1508 49.852 37.6228 49.724C38.1028 49.588 38.5988 49.52 39.1108 49.52C40.0388 49.52 40.7548 49.744 41.2588 50.192C41.7708 50.632 42.0268 51.316 42.0268 52.244V56H40.6108ZM38.5948 56.084C38.1148 56.084 37.6948 56.004 37.3348 55.844C36.9748 55.676 36.6948 55.448 36.4948 55.16C36.3028 54.864 36.2068 54.532 36.2068 54.164C36.2068 53.804 36.2908 53.48 36.4588 53.192C36.6348 52.904 36.9188 52.676 37.3108 52.508C37.7028 52.34 38.2228 52.256 38.8708 52.256H40.7308V53.252H38.9788C38.4668 53.252 38.1228 53.336 37.9468 53.504C37.7708 53.664 37.6828 53.864 37.6828 54.104C37.6828 54.376 37.7908 54.592 38.0068 54.752C38.2228 54.912 38.5228 54.992 38.9068 54.992C39.2748 54.992 39.6028 54.908 39.8908 54.74C40.1868 54.572 40.3988 54.324 40.5268 53.996L40.7788 54.896C40.6348 55.272 40.3748 55.564 39.9988 55.772C39.6308 55.98 39.1628 56.084 38.5948 56.084ZM51.527 56L49.655 52.928L50.879 52.172L53.315 56H51.527ZM48.443 53.432V52.184H50.591V53.432H48.443ZM51.023 52.976L49.607 52.808L51.551 49.592H53.147L51.023 52.976ZM44.759 56H42.983L45.407 52.172L46.631 52.928L44.759 56ZM48.887 56H47.399V49.592H48.887V56ZM47.843 53.432H45.707V52.184H47.843V53.432ZM45.263 52.976L43.139 49.592H44.735L46.667 52.808L45.263 52.976ZM58.333 56.12C57.693 56.12 57.097 56.016 56.545 55.808C56.001 55.592 55.525 55.292 55.117 54.908C54.717 54.516 54.405 54.056 54.181 53.528C53.957 53 53.845 52.424 53.845 51.8C53.845 51.176 53.957 50.6 54.181 50.072C54.405 49.544 54.721 49.088 55.129 48.704C55.537 48.312 56.013 48.012 56.557 47.804C57.101 47.588 57.697 47.48 58.345 47.48C59.033 47.48 59.661 47.6 60.229 47.84C60.797 48.072 61.277 48.42 61.669 48.884L60.661 49.832C60.357 49.504 60.017 49.26 59.641 49.1C59.265 48.932 58.857 48.848 58.417 48.848C57.977 48.848 57.573 48.92 57.205 49.064C56.845 49.208 56.529 49.412 56.257 49.676C55.993 49.94 55.785 50.252 55.633 50.612C55.489 50.972 55.417 51.368 55.417 51.8C55.417 52.232 55.489 52.628 55.633 52.988C55.785 53.348 55.993 53.66 56.257 53.924C56.529 54.188 56.845 54.392 57.205 54.536C57.573 54.68 57.977 54.752 58.417 54.752C58.857 54.752 59.265 54.672 59.641 54.512C60.017 54.344 60.357 54.092 60.661 53.756L61.669 54.716C61.277 55.172 60.797 55.52 60.229 55.76C59.661 56 59.029 56.12 58.333 56.12ZM62.9494 56V49.592H69.0934V56H67.6054V50.516L67.9534 50.864H64.1014L64.4494 50.516V56H62.9494ZM74.1054 56.084C73.3934 56.084 72.7694 55.944 72.2334 55.664C71.7054 55.376 71.2934 54.984 70.9974 54.488C70.7094 53.992 70.5654 53.428 70.5654 52.796C70.5654 52.156 70.7054 51.592 70.9854 51.104C71.2734 50.608 71.6654 50.22 72.1614 49.94C72.6654 49.66 73.2374 49.52 73.8774 49.52C74.5014 49.52 75.0574 49.656 75.5454 49.928C76.0334 50.2 76.4174 50.584 76.6974 51.08C76.9774 51.576 77.1174 52.16 77.1174 52.832C77.1174 52.896 77.1134 52.968 77.1054 53.048C77.1054 53.128 77.1014 53.204 77.0934 53.276H71.7534V52.28H76.3014L75.7134 52.592C75.7214 52.224 75.6454 51.9 75.4854 51.62C75.3254 51.34 75.1054 51.12 74.8254 50.96C74.5534 50.8 74.2374 50.72 73.8774 50.72C73.5094 50.72 73.1854 50.8 72.9054 50.96C72.6334 51.12 72.4174 51.344 72.2574 51.632C72.1054 51.912 72.0294 52.244 72.0294 52.628V52.868C72.0294 53.252 72.1174 53.592 72.2934 53.888C72.4694 54.184 72.7174 54.412 73.0374 54.572C73.3574 54.732 73.7254 54.812 74.1414 54.812C74.5014 54.812 74.8254 54.756 75.1134 54.644C75.4014 54.532 75.6574 54.356 75.8814 54.116L76.6854 55.04C76.3974 55.376 76.0334 55.636 75.5934 55.82C75.1614 55.996 74.6654 56.084 74.1054 56.084ZM78.758 56V49.592H80.258V54.728H83.318V49.592H84.818V56H78.758ZM84.386 57.428V55.964L84.734 56H83.318V54.728H85.79V57.428H84.386ZM91.1572 56.12C90.5172 56.12 89.9212 56.016 89.3692 55.808C88.8252 55.592 88.3492 55.292 87.9412 54.908C87.5412 54.516 87.2292 54.056 87.0052 53.528C86.7812 53 86.6692 52.424 86.6692 51.8C86.6692 51.176 86.7812 50.6 87.0052 50.072C87.2292 49.544 87.5452 49.088 87.9532 48.704C88.3612 48.312 88.8372 48.012 89.3812 47.804C89.9252 47.588 90.5212 47.48 91.1692 47.48C91.8572 47.48 92.4852 47.6 93.0532 47.84C93.6212 48.072 94.1012 48.42 94.4932 48.884L93.4852 49.832C93.1812 49.504 92.8412 49.26 92.4652 49.1C92.0892 48.932 91.6812 48.848 91.2412 48.848C90.8012 48.848 90.3972 48.92 90.0292 49.064C89.6692 49.208 89.3532 49.412 89.0812 49.676C88.8172 49.94 88.6092 50.252 88.4572 50.612C88.3132 50.972 88.2412 51.368 88.2412 51.8C88.2412 52.232 88.3132 52.628 88.4572 52.988C88.6092 53.348 88.8172 53.66 89.0812 53.924C89.3532 54.188 89.6692 54.392 90.0292 54.536C90.3972 54.68 90.8012 54.752 91.2412 54.752C91.6812 54.752 92.0892 54.672 92.4652 54.512C92.8412 54.344 93.1812 54.092 93.4852 53.756L94.4932 54.716C94.1012 55.172 93.6212 55.52 93.0532 55.76C92.4852 56 91.8532 56.12 91.1572 56.12ZM96.9298 56V50.504L97.2778 50.864H94.6738V49.592H100.674V50.864H98.0818L98.4298 50.504V56H96.9298ZM105.314 56.084C104.794 56.084 104.318 55.964 103.886 55.724C103.462 55.484 103.122 55.124 102.866 54.644C102.618 54.156 102.494 53.54 102.494 52.796C102.494 52.044 102.614 51.428 102.854 50.948C103.102 50.468 103.438 50.112 103.862 49.88C104.286 49.64 104.77 49.52 105.314 49.52C105.946 49.52 106.502 49.656 106.982 49.928C107.47 50.2 107.854 50.58 108.134 51.068C108.422 51.556 108.566 52.132 108.566 52.796C108.566 53.46 108.422 54.04 108.134 54.536C107.854 55.024 107.47 55.404 106.982 55.676C106.502 55.948 105.946 56.084 105.314 56.084ZM101.762 58.328V49.592H103.19V51.104L103.142 52.808L103.262 54.512V58.328H101.762ZM105.146 54.8C105.506 54.8 105.826 54.72 106.106 54.56C106.394 54.4 106.622 54.168 106.79 53.864C106.958 53.56 107.042 53.204 107.042 52.796C107.042 52.38 106.958 52.024 106.79 51.728C106.622 51.424 106.394 51.192 106.106 51.032C105.826 50.872 105.506 50.792 105.146 50.792C104.786 50.792 104.462 50.872 104.174 51.032C103.886 51.192 103.658 51.424 103.49 51.728C103.322 52.024 103.238 52.38 103.238 52.796C103.238 53.204 103.322 53.56 103.49 53.864C103.658 54.168 103.886 54.4 104.174 54.56C104.462 54.72 104.786 54.8 105.146 54.8ZM112.915 56.084C112.259 56.084 111.675 55.944 111.163 55.664C110.651 55.376 110.247 54.984 109.951 54.488C109.655 53.992 109.507 53.428 109.507 52.796C109.507 52.156 109.655 51.592 109.951 51.104C110.247 50.608 110.651 50.22 111.163 49.94C111.675 49.66 112.259 49.52 112.915 49.52C113.579 49.52 114.167 49.66 114.679 49.94C115.199 50.22 115.603 50.604 115.891 51.092C116.187 51.58 116.335 52.148 116.335 52.796C116.335 53.428 116.187 53.992 115.891 54.488C115.603 54.984 115.199 55.376 114.679 55.664C114.167 55.944 113.579 56.084 112.915 56.084ZM112.915 54.8C113.283 54.8 113.611 54.72 113.899 54.56C114.187 54.4 114.411 54.168 114.571 53.864C114.739 53.56 114.823 53.204 114.823 52.796C114.823 52.38 114.739 52.024 114.571 51.728C114.411 51.424 114.187 51.192 113.899 51.032C113.611 50.872 113.287 50.792 112.927 50.792C112.559 50.792 112.231 50.872 111.943 51.032C111.663 51.192 111.439 51.424 111.271 51.728C111.103 52.024 111.019 52.38 111.019 52.796C111.019 53.204 111.103 53.56 111.271 53.864C111.439 54.168 111.663 54.4 111.943 54.56C112.231 54.72 112.555 54.8 112.915 54.8ZM117.817 56V49.592H119.317V53.816L122.857 49.592H124.225V56H122.725V51.776L119.197 56H117.817ZM120.925 48.836C120.285 48.836 119.793 48.688 119.449 48.392C119.105 48.088 118.929 47.648 118.921 47.072H119.917C119.925 47.36 120.013 47.588 120.181 47.756C120.357 47.924 120.601 48.008 120.913 48.008C121.217 48.008 121.457 47.924 121.633 47.756C121.817 47.588 121.913 47.36 121.921 47.072H122.941C122.933 47.648 122.753 48.088 122.401 48.392C122.057 48.688 121.565 48.836 120.925 48.836Z" fill="url(#paint1_linear_101_67)"/>
<defs>
<filter id="filter0_i_101_67" x="4.1499" y="4.40002" width="119.891" height="40.2" filterUnits="userSpaceOnUse" color-interpolation-filters="sRGB">
<feFlood flood-opacity="0" result="BackgroundImageFix"/>
<feBlend mode="normal" in="SourceGraphic" in2="BackgroundImageFix" result="shape"/>
<feColorMatrix in="SourceAlpha" type="matrix" values="0 0 0 0 0 0 0 0 0 0 0 0 0 0 0 0 0 0 127 0" result="hardAlpha"/>
<feOffset dy="4"/>
<feGaussianBlur stdDeviation="2"/>
<feComposite in2="hardAlpha" operator="arithmetic" k2="-1" k3="1"/>
<feColorMatrix type="matrix" values="0 0 0 0 1 0 0 0 0 1 0 0 0 0 1 0 0 0 0.25 0"/>
<feBlend mode="normal" in2="shape" result="effect1_innerShadow_101_67"/>
</filter>
<linearGradient id="paint0_linear_101_67" x1="62.9999" y1="-7.99997" x2="62.9999" y2="53" gradientUnits="userSpaceOnUse">
<stop stop-color="#002645"/>
<stop offset="1" stop-color="#003391"/>
</linearGradient>
<linearGradient id="paint1_linear_101_67" x1="64" y1="44" x2="64" y2="59" gradientUnits="userSpaceOnUse">
<stop stop-color="#002645"/>
<stop offset="1" stop-color="#003391"/>
</linearGradient>
</defs>
</svg>
