<svg width="24" height="24" viewBox="0 0 24 24" fill="none" xmlns="http://www.w3.org/2000/svg">
<path d="M6.50888 0.611245C4.39053 1.93753 2.95858 4.27871 2.95858 6.95435C2.95858 9.62998 4.39053 11.9712 6.54438 13.2975C2.91124 13.2975 0 10.4604 0 6.95435C0 5.27205 0.685755 3.65866 1.90641 2.4691C3.12706 1.27953 4.78261 0.611245 6.50888 0.611245ZM20.2012 2.34118L21.8935 3.99039L3.46746 21.9471L1.77515 20.2979L20.2012 2.34118ZM12.8876 5.14368L11.1361 4.07112L9.43195 5.22441L9.92899 3.26382L8.28402 2.04133L10.355 1.90293L11.0414 0L11.8343 1.87987L13.8817 1.91446L12.284 3.21768L12.8876 5.14368ZM8.98225 9.30706L7.60947 8.46516L6.28402 9.36473L6.68639 7.84238L5.39645 6.88515L7.00592 6.78135L7.53846 5.29361L8.14201 6.75829L9.75148 6.79289L8.50887 7.79625L8.98225 9.30706ZM20.1183 13.8741C20.1183 15.5564 19.4326 17.1698 18.2119 18.3593C16.9913 19.5489 15.3357 20.2172 13.6095 20.2172C12.1657 20.2172 10.8284 19.7559 9.75148 18.9832L18.8521 10.1144C19.645 11.1639 20.1183 12.4671 20.1183 13.8741ZM14.9112 21.4628L18.1893 20.1365L17.9053 24L14.9112 21.4628ZM20.0355 18.3489L21.3964 15.1543L24 18.0836L20.0355 18.3489ZM21.3964 12.6285L20.0473 9.42239L24 9.69918L21.3964 12.6285ZM9.02959 20.1365L12.3077 21.4628L9.31361 23.9885L9.02959 20.1365Z" fill="white"/>
</svg>
