<svg width="100" height="100" viewBox="0 0 100 100" fill="none" xmlns="http://www.w3.org/2000/svg">
<path d="M24.2268 0H21.4634V2.76341H24.2268V0Z" fill="black"/>
<path d="M26.9097 0H24.1462V2.76341H26.9097V0Z" fill="black"/>
<path d="M32.2756 0H29.5122V2.76341H32.2756V0Z" fill="black"/>
<path d="M37.6413 0H34.8779V2.76341H37.6413V0Z" fill="black"/>
<path d="M40.3244 0H37.561V2.76341H40.3244V0Z" fill="black"/>
<path d="M43.0073 0H40.2439V2.76341H43.0073V0Z" fill="black"/>
<path d="M45.6902 0H42.9268V2.76341H45.6902V0Z" fill="black"/>
<path d="M53.739 0H50.9756V2.76341H53.739V0Z" fill="black"/>
<path d="M56.4219 0H53.6584V2.76341H56.4219V0Z" fill="black"/>
<path d="M77.8855 0H75.1221V2.76341H77.8855V0Z" fill="black"/>
<path d="M24.2268 2.68286H21.4634V5.44628H24.2268V2.68286Z" fill="black"/>
<path d="M29.5928 2.68286H26.8293V5.44628H29.5928V2.68286Z" fill="black"/>
<path d="M32.2756 2.68286H29.5122V5.44628H32.2756V2.68286Z" fill="black"/>
<path d="M37.6413 2.68286H34.8779V5.44628H37.6413V2.68286Z" fill="black"/>
<path d="M43.0073 2.68286H40.2439V5.44628H43.0073V2.68286Z" fill="black"/>
<path d="M51.0561 2.68286H48.2927V5.44628H51.0561V2.68286Z" fill="black"/>
<path d="M53.739 2.68286H50.9756V5.44628H53.739V2.68286Z" fill="black"/>
<path d="M56.4219 2.68286H53.6584V5.44628H56.4219V2.68286Z" fill="black"/>
<path d="M61.7878 2.68286H59.0244V5.44628H61.7878V2.68286Z" fill="black"/>
<path d="M64.4707 2.68286H61.7073V5.44628H64.4707V2.68286Z" fill="black"/>
<path d="M69.8367 2.68286H67.0732V5.44628H69.8367V2.68286Z" fill="black"/>
<path d="M72.5195 2.68286H69.7561V5.44628H72.5195V2.68286Z" fill="black"/>
<path d="M75.2024 2.68286H72.439V5.44628H75.2024V2.68286Z" fill="black"/>
<path d="M24.2268 5.36597H21.4634V8.12938H24.2268V5.36597Z" fill="black"/>
<path d="M26.9097 5.36597H24.1462V8.12938H26.9097V5.36597Z" fill="black"/>
<path d="M29.5928 5.36597H26.8293V8.12938H29.5928V5.36597Z" fill="black"/>
<path d="M32.2756 5.36597H29.5122V8.12938H32.2756V5.36597Z" fill="black"/>
<path d="M34.9585 5.36597H32.1951V8.12938H34.9585V5.36597Z" fill="black"/>
<path d="M37.6413 5.36597H34.8779V8.12938H37.6413V5.36597Z" fill="black"/>
<path d="M40.3244 5.36597H37.561V8.12938H40.3244V5.36597Z" fill="black"/>
<path d="M43.0073 5.36597H40.2439V8.12938H43.0073V5.36597Z" fill="black"/>
<path d="M45.6902 5.36597H42.9268V8.12938H45.6902V5.36597Z" fill="black"/>
<path d="M48.3733 5.36597H45.6099V8.12938H48.3733V5.36597Z" fill="black"/>
<path d="M51.0561 5.36597H48.2927V8.12938H51.0561V5.36597Z" fill="black"/>
<path d="M56.4219 5.36597H53.6584V8.12938H56.4219V5.36597Z" fill="black"/>
<path d="M59.105 5.36597H56.3416V8.12938H59.105V5.36597Z" fill="black"/>
<path d="M64.4707 5.36597H61.7073V8.12938H64.4707V5.36597Z" fill="black"/>
<path d="M75.2024 5.36597H72.439V8.12938H75.2024V5.36597Z" fill="black"/>
<path d="M77.8855 5.36597H75.1221V8.12938H77.8855V5.36597Z" fill="black"/>
<path d="M26.9097 8.04883H24.1462V10.8122H26.9097V8.04883Z" fill="black"/>
<path d="M29.5928 8.04883H26.8293V10.8122H29.5928V8.04883Z" fill="black"/>
<path d="M32.2756 8.04883H29.5122V10.8122H32.2756V8.04883Z" fill="black"/>
<path d="M34.9585 8.04883H32.1951V10.8122H34.9585V8.04883Z" fill="black"/>
<path d="M40.3244 8.04883H37.561V10.8122H40.3244V8.04883Z" fill="black"/>
<path d="M45.6902 8.04883H42.9268V10.8122H45.6902V8.04883Z" fill="black"/>
<path d="M51.0561 8.04883H48.2927V10.8122H51.0561V8.04883Z" fill="black"/>
<path d="M64.4707 8.04883H61.7073V10.8122H64.4707V8.04883Z" fill="black"/>
<path d="M69.8367 8.04883H67.0732V10.8122H69.8367V8.04883Z" fill="black"/>
<path d="M72.5195 8.04883H69.7561V10.8122H72.5195V8.04883Z" fill="black"/>
<path d="M75.2024 8.04883H72.439V10.8122H75.2024V8.04883Z" fill="black"/>
<path d="M26.9097 10.7317H24.1462V13.4951H26.9097V10.7317Z" fill="black"/>
<path d="M29.5928 10.7317H26.8293V13.4951H29.5928V10.7317Z" fill="black"/>
<path d="M32.2756 10.7317H29.5122V13.4951H32.2756V10.7317Z" fill="black"/>
<path d="M43.0073 10.7317H40.2439V13.4951H43.0073V10.7317Z" fill="black"/>
<path d="M51.0561 10.7317H48.2927V13.4951H51.0561V10.7317Z" fill="black"/>
<path d="M56.4219 10.7317H53.6584V13.4951H56.4219V10.7317Z" fill="black"/>
<path d="M59.105 10.7317H56.3416V13.4951H59.105V10.7317Z" fill="black"/>
<path d="M64.4707 10.7317H61.7073V13.4951H64.4707V10.7317Z" fill="black"/>
<path d="M24.2268 13.4146H21.4634V16.178H24.2268V13.4146Z" fill="black"/>
<path d="M26.9097 13.4146H24.1462V16.178H26.9097V13.4146Z" fill="black"/>
<path d="M32.2756 13.4146H29.5122V16.178H32.2756V13.4146Z" fill="black"/>
<path d="M34.9585 13.4146H32.1951V16.178H34.9585V13.4146Z" fill="black"/>
<path d="M40.3244 13.4146H37.561V16.178H40.3244V13.4146Z" fill="black"/>
<path d="M43.0073 13.4146H40.2439V16.178H43.0073V13.4146Z" fill="black"/>
<path d="M45.6902 13.4146H42.9268V16.178H45.6902V13.4146Z" fill="black"/>
<path d="M51.0561 13.4146H48.2927V16.178H51.0561V13.4146Z" fill="black"/>
<path d="M69.8367 13.4146H67.0732V16.178H69.8367V13.4146Z" fill="black"/>
<path d="M75.2024 13.4146H72.439V16.178H75.2024V13.4146Z" fill="black"/>
<path d="M77.8855 13.4146H75.1221V16.178H77.8855V13.4146Z" fill="black"/>
<path d="M24.2268 16.0977H21.4634V18.8611H24.2268V16.0977Z" fill="black"/>
<path d="M29.5928 16.0977H26.8293V18.8611H29.5928V16.0977Z" fill="black"/>
<path d="M34.9585 16.0977H32.1951V18.8611H34.9585V16.0977Z" fill="black"/>
<path d="M40.3244 16.0977H37.561V18.8611H40.3244V16.0977Z" fill="black"/>
<path d="M45.6902 16.0977H42.9268V18.8611H45.6902V16.0977Z" fill="black"/>
<path d="M51.0561 16.0977H48.2927V18.8611H51.0561V16.0977Z" fill="black"/>
<path d="M56.4219 16.0977H53.6584V18.8611H56.4219V16.0977Z" fill="black"/>
<path d="M61.7878 16.0977H59.0244V18.8611H61.7878V16.0977Z" fill="black"/>
<path d="M67.1536 16.0977H64.3901V18.8611H67.1536V16.0977Z" fill="black"/>
<path d="M72.5195 16.0977H69.7561V18.8611H72.5195V16.0977Z" fill="black"/>
<path d="M77.8855 16.0977H75.1221V18.8611H77.8855V16.0977Z" fill="black"/>
<path d="M24.2268 18.7805H21.4634V21.5439H24.2268V18.7805Z" fill="black"/>
<path d="M26.9097 18.7805H24.1462V21.5439H26.9097V18.7805Z" fill="black"/>
<path d="M29.5928 18.7805H26.8293V21.5439H29.5928V18.7805Z" fill="black"/>
<path d="M32.2756 18.7805H29.5122V21.5439H32.2756V18.7805Z" fill="black"/>
<path d="M40.3244 18.7805H37.561V21.5439H40.3244V18.7805Z" fill="black"/>
<path d="M43.0073 18.7805H40.2439V21.5439H43.0073V18.7805Z" fill="black"/>
<path d="M51.0561 18.7805H48.2927V21.5439H51.0561V18.7805Z" fill="black"/>
<path d="M53.739 18.7805H50.9756V21.5439H53.739V18.7805Z" fill="black"/>
<path d="M64.4707 18.7805H61.7073V21.5439H64.4707V18.7805Z" fill="black"/>
<path d="M67.1536 18.7805H64.3901V21.5439H67.1536V18.7805Z" fill="black"/>
<path d="M69.8367 18.7805H67.0732V21.5439H69.8367V18.7805Z" fill="black"/>
<path d="M77.8855 18.7805H75.1221V21.5439H77.8855V18.7805Z" fill="black"/>
<path d="M8.12938 21.4634H5.36597V24.2268H8.12938V21.4634Z" fill="black"/>
<path d="M10.8122 21.4634H8.04883V24.2268H10.8122V21.4634Z" fill="black"/>
<path d="M13.4951 21.4634H10.7317V24.2268H13.4951V21.4634Z" fill="black"/>
<path d="M18.8611 21.4634H16.0977V24.2268H18.8611V21.4634Z" fill="black"/>
<path d="M24.2268 21.4634H21.4634V24.2268H24.2268V21.4634Z" fill="black"/>
<path d="M26.9097 21.4634H24.1462V24.2268H26.9097V21.4634Z" fill="black"/>
<path d="M32.2756 21.4634H29.5122V24.2268H32.2756V21.4634Z" fill="black"/>
<path d="M53.739 21.4634H50.9756V24.2268H53.739V21.4634Z" fill="black"/>
<path d="M61.7878 21.4634H59.0244V24.2268H61.7878V21.4634Z" fill="black"/>
<path d="M67.1536 21.4634H64.3901V24.2268H67.1536V21.4634Z" fill="black"/>
<path d="M69.8367 21.4634H67.0732V24.2268H69.8367V21.4634Z" fill="black"/>
<path d="M77.8855 21.4634H75.1221V24.2268H77.8855V21.4634Z" fill="black"/>
<path d="M80.5683 21.4634H77.8049V24.2268H80.5683V21.4634Z" fill="black"/>
<path d="M83.2512 21.4634H80.4878V24.2268H83.2512V21.4634Z" fill="black"/>
<path d="M85.9341 21.4634H83.1707V24.2268H85.9341V21.4634Z" fill="black"/>
<path d="M93.9829 21.4634H91.2195V24.2268H93.9829V21.4634Z" fill="black"/>
<path d="M96.6658 21.4634H93.9023V24.2268H96.6658V21.4634Z" fill="black"/>
<path d="M99.3489 21.4634H96.5854V24.2268H99.3489V21.4634Z" fill="black"/>
<path d="M5.44628 24.1462H2.68286V26.9097H5.44628V24.1462Z" fill="black"/>
<path d="M13.4951 24.1462H10.7317V26.9097H13.4951V24.1462Z" fill="black"/>
<path d="M21.5439 24.1462H18.7805V26.9097H21.5439V24.1462Z" fill="black"/>
<path d="M26.9097 24.1462H24.1462V26.9097H26.9097V24.1462Z" fill="black"/>
<path d="M29.5928 24.1462H26.8293V26.9097H29.5928V24.1462Z" fill="black"/>
<path d="M32.2756 24.1462H29.5122V26.9097H32.2756V24.1462Z" fill="black"/>
<path d="M40.3244 24.1462H37.561V26.9097H40.3244V24.1462Z" fill="black"/>
<path d="M43.0073 24.1462H40.2439V26.9097H43.0073V24.1462Z" fill="black"/>
<path d="M45.6902 24.1462H42.9268V26.9097H45.6902V24.1462Z" fill="black"/>
<path d="M51.0561 24.1462H48.2927V26.9097H51.0561V24.1462Z" fill="black"/>
<path d="M56.4219 24.1462H53.6584V26.9097H56.4219V24.1462Z" fill="black"/>
<path d="M69.8367 24.1462H67.0732V26.9097H69.8367V24.1462Z" fill="black"/>
<path d="M72.5195 24.1462H69.7561V26.9097H72.5195V24.1462Z" fill="black"/>
<path d="M77.8855 24.1462H75.1221V26.9097H77.8855V24.1462Z" fill="black"/>
<path d="M83.2512 24.1462H80.4878V26.9097H83.2512V24.1462Z" fill="black"/>
<path d="M93.9829 24.1462H91.2195V26.9097H93.9829V24.1462Z" fill="black"/>
<path d="M96.6658 24.1462H93.9023V26.9097H96.6658V24.1462Z" fill="black"/>
<path d="M10.8122 26.8293H8.04883V29.5928H10.8122V26.8293Z" fill="black"/>
<path d="M13.4951 26.8293H10.7317V29.5928H13.4951V26.8293Z" fill="black"/>
<path d="M16.178 26.8293H13.4146V29.5928H16.178V26.8293Z" fill="black"/>
<path d="M18.8611 26.8293H16.0977V29.5928H18.8611V26.8293Z" fill="black"/>
<path d="M21.5439 26.8293H18.7805V29.5928H21.5439V26.8293Z" fill="black"/>
<path d="M24.2268 26.8293H21.4634V29.5928H24.2268V26.8293Z" fill="black"/>
<path d="M34.9585 26.8293H32.1951V29.5928H34.9585V26.8293Z" fill="black"/>
<path d="M37.6413 26.8293H34.8779V29.5928H37.6413V26.8293Z" fill="black"/>
<path d="M43.0073 26.8293H40.2439V29.5928H43.0073V26.8293Z" fill="black"/>
<path d="M48.3733 26.8293H45.6099V29.5928H48.3733V26.8293Z" fill="black"/>
<path d="M56.4219 26.8293H53.6584V29.5928H56.4219V26.8293Z" fill="black"/>
<path d="M59.105 26.8293H56.3416V29.5928H59.105V26.8293Z" fill="black"/>
<path d="M61.7878 26.8293H59.0244V29.5928H61.7878V26.8293Z" fill="black"/>
<path d="M67.1536 26.8293H64.3901V29.5928H67.1536V26.8293Z" fill="black"/>
<path d="M69.8367 26.8293H67.0732V29.5928H69.8367V26.8293Z" fill="black"/>
<path d="M72.5195 26.8293H69.7561V29.5928H72.5195V26.8293Z" fill="black"/>
<path d="M75.2024 26.8293H72.439V29.5928H75.2024V26.8293Z" fill="black"/>
<path d="M83.2512 26.8293H80.4878V29.5928H83.2512V26.8293Z" fill="black"/>
<path d="M85.9341 26.8293H83.1707V29.5928H85.9341V26.8293Z" fill="black"/>
<path d="M88.6172 26.8293H85.8538V29.5928H88.6172V26.8293Z" fill="black"/>
<path d="M96.6658 26.8293H93.9023V29.5928H96.6658V26.8293Z" fill="black"/>
<path d="M99.3489 26.8293H96.5854V29.5928H99.3489V26.8293Z" fill="black"/>
<path d="M5.44628 29.5122H2.68286V32.2756H5.44628V29.5122Z" fill="black"/>
<path d="M13.4951 29.5122H10.7317V32.2756H13.4951V29.5122Z" fill="black"/>
<path d="M16.178 29.5122H13.4146V32.2756H16.178V29.5122Z" fill="black"/>
<path d="M43.0073 29.5122H40.2439V32.2756H43.0073V29.5122Z" fill="black"/>
<path d="M51.0561 29.5122H48.2927V32.2756H51.0561V29.5122Z" fill="black"/>
<path d="M56.4219 29.5122H53.6584V32.2756H56.4219V29.5122Z" fill="black"/>
<path d="M59.105 29.5122H56.3416V32.2756H59.105V29.5122Z" fill="black"/>
<path d="M61.7878 29.5122H59.0244V32.2756H61.7878V29.5122Z" fill="black"/>
<path d="M64.4707 29.5122H61.7073V32.2756H64.4707V29.5122Z" fill="black"/>
<path d="M72.5195 29.5122H69.7561V32.2756H72.5195V29.5122Z" fill="black"/>
<path d="M83.2512 29.5122H80.4878V32.2756H83.2512V29.5122Z" fill="black"/>
<path d="M85.9341 29.5122H83.1707V32.2756H85.9341V29.5122Z" fill="black"/>
<path d="M88.6172 29.5122H85.8538V32.2756H88.6172V29.5122Z" fill="black"/>
<path d="M96.6658 29.5122H93.9023V32.2756H96.6658V29.5122Z" fill="black"/>
<path d="M99.3489 29.5122H96.5854V32.2756H99.3489V29.5122Z" fill="black"/>
<path d="M2.76341 32.1951H0V34.9585H2.76341V32.1951Z" fill="black"/>
<path d="M5.44628 32.1951H2.68286V34.9585H5.44628V32.1951Z" fill="black"/>
<path d="M13.4951 32.1951H10.7317V34.9585H13.4951V32.1951Z" fill="black"/>
<path d="M18.8611 32.1951H16.0977V34.9585H18.8611V32.1951Z" fill="black"/>
<path d="M21.5439 32.1951H18.7805V34.9585H21.5439V32.1951Z" fill="black"/>
<path d="M26.9097 32.1951H24.1462V34.9585H26.9097V32.1951Z" fill="black"/>
<path d="M29.5928 32.1951H26.8293V34.9585H29.5928V32.1951Z" fill="black"/>
<path d="M34.9585 32.1951H32.1951V34.9585H34.9585V32.1951Z" fill="black"/>
<path d="M37.6413 32.1951H34.8779V34.9585H37.6413V32.1951Z" fill="black"/>
<path d="M48.3733 32.1951H45.6099V34.9585H48.3733V32.1951Z" fill="black"/>
<path d="M51.0561 32.1951H48.2927V34.9585H51.0561V32.1951Z" fill="black"/>
<path d="M53.739 32.1951H50.9756V34.9585H53.739V32.1951Z" fill="black"/>
<path d="M61.7878 32.1951H59.0244V34.9585H61.7878V32.1951Z" fill="black"/>
<path d="M67.1536 32.1951H64.3901V34.9585H67.1536V32.1951Z" fill="black"/>
<path d="M69.8367 32.1951H67.0732V34.9585H69.8367V32.1951Z" fill="black"/>
<path d="M75.2024 32.1951H72.439V34.9585H75.2024V32.1951Z" fill="black"/>
<path d="M80.5683 32.1951H77.8049V34.9585H80.5683V32.1951Z" fill="black"/>
<path d="M83.2512 32.1951H80.4878V34.9585H83.2512V32.1951Z" fill="black"/>
<path d="M88.6172 32.1951H85.8538V34.9585H88.6172V32.1951Z" fill="black"/>
<path d="M91.3 32.1951H88.5366V34.9585H91.3V32.1951Z" fill="black"/>
<path d="M93.9829 32.1951H91.2195V34.9585H93.9829V32.1951Z" fill="black"/>
<path d="M8.12938 34.8779H5.36597V37.6413H8.12938V34.8779Z" fill="black"/>
<path d="M13.4951 34.8779H10.7317V37.6413H13.4951V34.8779Z" fill="black"/>
<path d="M16.178 34.8779H13.4146V37.6413H16.178V34.8779Z" fill="black"/>
<path d="M21.5439 34.8779H18.7805V37.6413H21.5439V34.8779Z" fill="black"/>
<path d="M29.5928 34.8779H26.8293V37.6413H29.5928V34.8779Z" fill="black"/>
<path d="M32.2756 34.8779H29.5122V37.6413H32.2756V34.8779Z" fill="black"/>
<path d="M34.9585 34.8779H32.1951V37.6413H34.9585V34.8779Z" fill="black"/>
<path d="M43.0073 34.8779H40.2439V37.6413H43.0073V34.8779Z" fill="black"/>
<path d="M45.6902 34.8779H42.9268V37.6413H45.6902V34.8779Z" fill="black"/>
<path d="M53.739 34.8779H50.9756V37.6413H53.739V34.8779Z" fill="black"/>
<path d="M59.105 34.8779H56.3416V37.6413H59.105V34.8779Z" fill="black"/>
<path d="M64.4707 34.8779H61.7073V37.6413H64.4707V34.8779Z" fill="black"/>
<path d="M72.5195 34.8779H69.7561V37.6413H72.5195V34.8779Z" fill="black"/>
<path d="M77.8855 34.8779H75.1221V37.6413H77.8855V34.8779Z" fill="black"/>
<path d="M80.5683 34.8779H77.8049V37.6413H80.5683V34.8779Z" fill="black"/>
<path d="M85.9341 34.8779H83.1707V37.6413H85.9341V34.8779Z" fill="black"/>
<path d="M91.3 34.8779H88.5366V37.6413H91.3V34.8779Z" fill="black"/>
<path d="M93.9829 34.8779H91.2195V37.6413H93.9829V34.8779Z" fill="black"/>
<path d="M96.6658 34.8779H93.9023V37.6413H96.6658V34.8779Z" fill="black"/>
<path d="M2.76341 37.561H0V40.3244H2.76341V37.561Z" fill="black"/>
<path d="M18.8611 37.561H16.0977V40.3244H18.8611V37.561Z" fill="black"/>
<path d="M21.5439 37.561H18.7805V40.3244H21.5439V37.561Z" fill="black"/>
<path d="M32.2756 37.561H29.5122V40.3244H32.2756V37.561Z" fill="black"/>
<path d="M34.9585 37.561H32.1951V40.3244H34.9585V37.561Z" fill="black"/>
<path d="M45.6902 37.561H42.9268V40.3244H45.6902V37.561Z" fill="black"/>
<path d="M53.739 37.561H50.9756V40.3244H53.739V37.561Z" fill="black"/>
<path d="M61.7878 37.561H59.0244V40.3244H61.7878V37.561Z" fill="black"/>
<path d="M64.4707 37.561H61.7073V40.3244H64.4707V37.561Z" fill="black"/>
<path d="M72.5195 37.561H69.7561V40.3244H72.5195V37.561Z" fill="black"/>
<path d="M75.2024 37.561H72.439V40.3244H75.2024V37.561Z" fill="black"/>
<path d="M77.8855 37.561H75.1221V40.3244H77.8855V37.561Z" fill="black"/>
<path d="M80.5683 37.561H77.8049V40.3244H80.5683V37.561Z" fill="black"/>
<path d="M83.2512 37.561H80.4878V40.3244H83.2512V37.561Z" fill="black"/>
<path d="M85.9341 37.561H83.1707V40.3244H85.9341V37.561Z" fill="black"/>
<path d="M91.3 37.561H88.5366V40.3244H91.3V37.561Z" fill="black"/>
<path d="M96.6658 37.561H93.9023V40.3244H96.6658V37.561Z" fill="black"/>
<path d="M99.3489 37.561H96.5854V40.3244H99.3489V37.561Z" fill="black"/>
<path d="M2.76341 40.2439H0V43.0073H2.76341V40.2439Z" fill="black"/>
<path d="M13.4951 40.2439H10.7317V43.0073H13.4951V40.2439Z" fill="black"/>
<path d="M21.5439 40.2439H18.7805V43.0073H21.5439V40.2439Z" fill="black"/>
<path d="M26.9097 40.2439H24.1462V43.0073H26.9097V40.2439Z" fill="black"/>
<path d="M29.5928 40.2439H26.8293V43.0073H29.5928V40.2439Z" fill="black"/>
<path d="M37.6413 40.2439H34.8779V43.0073H37.6413V40.2439Z" fill="black"/>
<path d="M40.3244 40.2439H37.561V43.0073H40.3244V40.2439Z" fill="black"/>
<path d="M43.0073 40.2439H40.2439V43.0073H43.0073V40.2439Z" fill="black"/>
<path d="M45.6902 40.2439H42.9268V43.0073H45.6902V40.2439Z" fill="black"/>
<path d="M51.0561 40.2439H48.2927V43.0073H51.0561V40.2439Z" fill="black"/>
<path d="M56.4219 40.2439H53.6584V43.0073H56.4219V40.2439Z" fill="black"/>
<path d="M61.7878 40.2439H59.0244V43.0073H61.7878V40.2439Z" fill="black"/>
<path d="M64.4707 40.2439H61.7073V43.0073H64.4707V40.2439Z" fill="black"/>
<path d="M67.1536 40.2439H64.3901V43.0073H67.1536V40.2439Z" fill="black"/>
<path d="M72.5195 40.2439H69.7561V43.0073H72.5195V40.2439Z" fill="black"/>
<path d="M77.8855 40.2439H75.1221V43.0073H77.8855V40.2439Z" fill="black"/>
<path d="M80.5683 40.2439H77.8049V43.0073H80.5683V40.2439Z" fill="black"/>
<path d="M83.2512 40.2439H80.4878V43.0073H83.2512V40.2439Z" fill="black"/>
<path d="M85.9341 40.2439H83.1707V43.0073H85.9341V40.2439Z" fill="black"/>
<path d="M88.6172 40.2439H85.8538V43.0073H88.6172V40.2439Z" fill="black"/>
<path d="M96.6658 40.2439H93.9023V43.0073H96.6658V40.2439Z" fill="black"/>
<path d="M99.3489 40.2439H96.5854V43.0073H99.3489V40.2439Z" fill="black"/>
<path d="M8.12938 42.9268H5.36597V45.6902H8.12938V42.9268Z" fill="black"/>
<path d="M10.8122 42.9268H8.04883V45.6902H10.8122V42.9268Z" fill="black"/>
<path d="M13.4951 42.9268H10.7317V45.6902H13.4951V42.9268Z" fill="black"/>
<path d="M16.178 42.9268H13.4146V45.6902H16.178V42.9268Z" fill="black"/>
<path d="M18.8611 42.9268H16.0977V45.6902H18.8611V42.9268Z" fill="black"/>
<path d="M21.5439 42.9268H18.7805V45.6902H21.5439V42.9268Z" fill="black"/>
<path d="M24.2268 42.9268H21.4634V45.6902H24.2268V42.9268Z" fill="black"/>
<path d="M34.9585 42.9268H32.1951V45.6902H34.9585V42.9268Z" fill="black"/>
<path d="M40.3244 42.9268H37.561V45.6902H40.3244V42.9268Z" fill="black"/>
<path d="M43.0073 42.9268H40.2439V45.6902H43.0073V42.9268Z" fill="black"/>
<path d="M45.6902 42.9268H42.9268V45.6902H45.6902V42.9268Z" fill="black"/>
<path d="M48.3733 42.9268H45.6099V45.6902H48.3733V42.9268Z" fill="black"/>
<path d="M53.739 42.9268H50.9756V45.6902H53.739V42.9268Z" fill="black"/>
<path d="M56.4219 42.9268H53.6584V45.6902H56.4219V42.9268Z" fill="black"/>
<path d="M59.105 42.9268H56.3416V45.6902H59.105V42.9268Z" fill="black"/>
<path d="M67.1536 42.9268H64.3901V45.6902H67.1536V42.9268Z" fill="black"/>
<path d="M69.8367 42.9268H67.0732V45.6902H69.8367V42.9268Z" fill="black"/>
<path d="M72.5195 42.9268H69.7561V45.6902H72.5195V42.9268Z" fill="black"/>
<path d="M77.8855 42.9268H75.1221V45.6902H77.8855V42.9268Z" fill="black"/>
<path d="M83.2512 42.9268H80.4878V45.6902H83.2512V42.9268Z" fill="black"/>
<path d="M85.9341 42.9268H83.1707V45.6902H85.9341V42.9268Z" fill="black"/>
<path d="M88.6172 42.9268H85.8538V45.6902H88.6172V42.9268Z" fill="black"/>
<path d="M93.9829 42.9268H91.2195V45.6902H93.9829V42.9268Z" fill="black"/>
<path d="M26.9097 45.6099H24.1462V48.3733H26.9097V45.6099Z" fill="black"/>
<path d="M29.5928 45.6099H26.8293V48.3733H29.5928V45.6099Z" fill="black"/>
<path d="M32.2756 45.6099H29.5122V48.3733H32.2756V45.6099Z" fill="black"/>
<path d="M37.6413 45.6099H34.8779V48.3733H37.6413V45.6099Z" fill="black"/>
<path d="M40.3244 45.6099H37.561V48.3733H40.3244V45.6099Z" fill="black"/>
<path d="M43.0073 45.6099H40.2439V48.3733H43.0073V45.6099Z" fill="black"/>
<path d="M51.0561 45.6099H48.2927V48.3733H51.0561V45.6099Z" fill="black"/>
<path d="M59.105 45.6099H56.3416V48.3733H59.105V45.6099Z" fill="black"/>
<path d="M64.4707 45.6099H61.7073V48.3733H64.4707V45.6099Z" fill="black"/>
<path d="M69.8367 45.6099H67.0732V48.3733H69.8367V45.6099Z" fill="black"/>
<path d="M72.5195 45.6099H69.7561V48.3733H72.5195V45.6099Z" fill="black"/>
<path d="M77.8855 45.6099H75.1221V48.3733H77.8855V45.6099Z" fill="black"/>
<path d="M85.9341 45.6099H83.1707V48.3733H85.9341V45.6099Z" fill="black"/>
<path d="M91.3 45.6099H88.5366V48.3733H91.3V45.6099Z" fill="black"/>
<path d="M8.12938 48.2927H5.36597V51.0561H8.12938V48.2927Z" fill="black"/>
<path d="M13.4951 48.2927H10.7317V51.0561H13.4951V48.2927Z" fill="black"/>
<path d="M16.178 48.2927H13.4146V51.0561H16.178V48.2927Z" fill="black"/>
<path d="M18.8611 48.2927H16.0977V51.0561H18.8611V48.2927Z" fill="black"/>
<path d="M21.5439 48.2927H18.7805V51.0561H21.5439V48.2927Z" fill="black"/>
<path d="M24.2268 48.2927H21.4634V51.0561H24.2268V48.2927Z" fill="black"/>
<path d="M34.9585 48.2927H32.1951V51.0561H34.9585V48.2927Z" fill="black"/>
<path d="M37.6413 48.2927H34.8779V51.0561H37.6413V48.2927Z" fill="black"/>
<path d="M45.6902 48.2927H42.9268V51.0561H45.6902V48.2927Z" fill="black"/>
<path d="M48.3733 48.2927H45.6099V51.0561H48.3733V48.2927Z" fill="black"/>
<path d="M53.739 48.2927H50.9756V51.0561H53.739V48.2927Z" fill="black"/>
<path d="M64.4707 48.2927H61.7073V51.0561H64.4707V48.2927Z" fill="black"/>
<path d="M67.1536 48.2927H64.3901V51.0561H67.1536V48.2927Z" fill="black"/>
<path d="M75.2024 48.2927H72.439V51.0561H75.2024V48.2927Z" fill="black"/>
<path d="M77.8855 48.2927H75.1221V51.0561H77.8855V48.2927Z" fill="black"/>
<path d="M83.2512 48.2927H80.4878V51.0561H83.2512V48.2927Z" fill="black"/>
<path d="M88.6172 48.2927H85.8538V51.0561H88.6172V48.2927Z" fill="black"/>
<path d="M93.9829 48.2927H91.2195V51.0561H93.9829V48.2927Z" fill="black"/>
<path d="M96.6658 48.2927H93.9023V51.0561H96.6658V48.2927Z" fill="black"/>
<path d="M99.3489 48.2927H96.5854V51.0561H99.3489V48.2927Z" fill="black"/>
<path d="M2.76341 50.9756H0V53.739H2.76341V50.9756Z" fill="black"/>
<path d="M5.44628 50.9756H2.68286V53.739H5.44628V50.9756Z" fill="black"/>
<path d="M16.178 50.9756H13.4146V53.739H16.178V50.9756Z" fill="black"/>
<path d="M21.5439 50.9756H18.7805V53.739H21.5439V50.9756Z" fill="black"/>
<path d="M29.5928 50.9756H26.8293V53.739H29.5928V50.9756Z" fill="black"/>
<path d="M32.2756 50.9756H29.5122V53.739H32.2756V50.9756Z" fill="black"/>
<path d="M37.6413 50.9756H34.8779V53.739H37.6413V50.9756Z" fill="black"/>
<path d="M40.3244 50.9756H37.561V53.739H40.3244V50.9756Z" fill="black"/>
<path d="M43.0073 50.9756H40.2439V53.739H43.0073V50.9756Z" fill="black"/>
<path d="M48.3733 50.9756H45.6099V53.739H48.3733V50.9756Z" fill="black"/>
<path d="M53.739 50.9756H50.9756V53.739H53.739V50.9756Z" fill="black"/>
<path d="M56.4219 50.9756H53.6584V53.739H56.4219V50.9756Z" fill="black"/>
<path d="M72.5195 50.9756H69.7561V53.739H72.5195V50.9756Z" fill="black"/>
<path d="M80.5683 50.9756H77.8049V53.739H80.5683V50.9756Z" fill="black"/>
<path d="M83.2512 50.9756H80.4878V53.739H83.2512V50.9756Z" fill="black"/>
<path d="M91.3 50.9756H88.5366V53.739H91.3V50.9756Z" fill="black"/>
<path d="M99.3489 50.9756H96.5854V53.739H99.3489V50.9756Z" fill="black"/>
<path d="M2.76341 53.6584H0V56.4219H2.76341V53.6584Z" fill="black"/>
<path d="M5.44628 53.6584H2.68286V56.4219H5.44628V53.6584Z" fill="black"/>
<path d="M13.4951 53.6584H10.7317V56.4219H13.4951V53.6584Z" fill="black"/>
<path d="M16.178 53.6584H13.4146V56.4219H16.178V53.6584Z" fill="black"/>
<path d="M18.8611 53.6584H16.0977V56.4219H18.8611V53.6584Z" fill="black"/>
<path d="M26.9097 53.6584H24.1462V56.4219H26.9097V53.6584Z" fill="black"/>
<path d="M34.9585 53.6584H32.1951V56.4219H34.9585V53.6584Z" fill="black"/>
<path d="M45.6902 53.6584H42.9268V56.4219H45.6902V53.6584Z" fill="black"/>
<path d="M48.3733 53.6584H45.6099V56.4219H48.3733V53.6584Z" fill="black"/>
<path d="M53.739 53.6584H50.9756V56.4219H53.739V53.6584Z" fill="black"/>
<path d="M56.4219 53.6584H53.6584V56.4219H56.4219V53.6584Z" fill="black"/>
<path d="M59.105 53.6584H56.3416V56.4219H59.105V53.6584Z" fill="black"/>
<path d="M64.4707 53.6584H61.7073V56.4219H64.4707V53.6584Z" fill="black"/>
<path d="M69.8367 53.6584H67.0732V56.4219H69.8367V53.6584Z" fill="black"/>
<path d="M72.5195 53.6584H69.7561V56.4219H72.5195V53.6584Z" fill="black"/>
<path d="M75.2024 53.6584H72.439V56.4219H75.2024V53.6584Z" fill="black"/>
<path d="M80.5683 53.6584H77.8049V56.4219H80.5683V53.6584Z" fill="black"/>
<path d="M83.2512 53.6584H80.4878V56.4219H83.2512V53.6584Z" fill="black"/>
<path d="M85.9341 53.6584H83.1707V56.4219H85.9341V53.6584Z" fill="black"/>
<path d="M88.6172 53.6584H85.8538V56.4219H88.6172V53.6584Z" fill="black"/>
<path d="M91.3 53.6584H88.5366V56.4219H91.3V53.6584Z" fill="black"/>
<path d="M93.9829 53.6584H91.2195V56.4219H93.9829V53.6584Z" fill="black"/>
<path d="M99.3489 53.6584H96.5854V56.4219H99.3489V53.6584Z" fill="black"/>
<path d="M5.44628 56.3416H2.68286V59.105H5.44628V56.3416Z" fill="black"/>
<path d="M10.8122 56.3416H8.04883V59.105H10.8122V56.3416Z" fill="black"/>
<path d="M16.178 56.3416H13.4146V59.105H16.178V56.3416Z" fill="black"/>
<path d="M24.2268 56.3416H21.4634V59.105H24.2268V56.3416Z" fill="black"/>
<path d="M26.9097 56.3416H24.1462V59.105H26.9097V56.3416Z" fill="black"/>
<path d="M32.2756 56.3416H29.5122V59.105H32.2756V56.3416Z" fill="black"/>
<path d="M34.9585 56.3416H32.1951V59.105H34.9585V56.3416Z" fill="black"/>
<path d="M37.6413 56.3416H34.8779V59.105H37.6413V56.3416Z" fill="black"/>
<path d="M43.0073 56.3416H40.2439V59.105H43.0073V56.3416Z" fill="black"/>
<path d="M45.6902 56.3416H42.9268V59.105H45.6902V56.3416Z" fill="black"/>
<path d="M51.0561 56.3416H48.2927V59.105H51.0561V56.3416Z" fill="black"/>
<path d="M53.739 56.3416H50.9756V59.105H53.739V56.3416Z" fill="black"/>
<path d="M56.4219 56.3416H53.6584V59.105H56.4219V56.3416Z" fill="black"/>
<path d="M59.105 56.3416H56.3416V59.105H59.105V56.3416Z" fill="black"/>
<path d="M64.4707 56.3416H61.7073V59.105H64.4707V56.3416Z" fill="black"/>
<path d="M67.1536 56.3416H64.3901V59.105H67.1536V56.3416Z" fill="black"/>
<path d="M69.8367 56.3416H67.0732V59.105H69.8367V56.3416Z" fill="black"/>
<path d="M72.5195 56.3416H69.7561V59.105H72.5195V56.3416Z" fill="black"/>
<path d="M85.9341 56.3416H83.1707V59.105H85.9341V56.3416Z" fill="black"/>
<path d="M99.3489 56.3416H96.5854V59.105H99.3489V56.3416Z" fill="black"/>
<path d="M5.44628 59.0244H2.68286V61.7878H5.44628V59.0244Z" fill="black"/>
<path d="M10.8122 59.0244H8.04883V61.7878H10.8122V59.0244Z" fill="black"/>
<path d="M18.8611 59.0244H16.0977V61.7878H18.8611V59.0244Z" fill="black"/>
<path d="M26.9097 59.0244H24.1462V61.7878H26.9097V59.0244Z" fill="black"/>
<path d="M29.5928 59.0244H26.8293V61.7878H29.5928V59.0244Z" fill="black"/>
<path d="M32.2756 59.0244H29.5122V61.7878H32.2756V59.0244Z" fill="black"/>
<path d="M37.6413 59.0244H34.8779V61.7878H37.6413V59.0244Z" fill="black"/>
<path d="M40.3244 59.0244H37.561V61.7878H40.3244V59.0244Z" fill="black"/>
<path d="M45.6902 59.0244H42.9268V61.7878H45.6902V59.0244Z" fill="black"/>
<path d="M53.739 59.0244H50.9756V61.7878H53.739V59.0244Z" fill="black"/>
<path d="M61.7878 59.0244H59.0244V61.7878H61.7878V59.0244Z" fill="black"/>
<path d="M67.1536 59.0244H64.3901V61.7878H67.1536V59.0244Z" fill="black"/>
<path d="M75.2024 59.0244H72.439V61.7878H75.2024V59.0244Z" fill="black"/>
<path d="M83.2512 59.0244H80.4878V61.7878H83.2512V59.0244Z" fill="black"/>
<path d="M91.3 59.0244H88.5366V61.7878H91.3V59.0244Z" fill="black"/>
<path d="M99.3489 59.0244H96.5854V61.7878H99.3489V59.0244Z" fill="black"/>
<path d="M5.44628 61.7073H2.68286V64.4707H5.44628V61.7073Z" fill="black"/>
<path d="M13.4951 61.7073H10.7317V64.4707H13.4951V61.7073Z" fill="black"/>
<path d="M24.2268 61.7073H21.4634V64.4707H24.2268V61.7073Z" fill="black"/>
<path d="M29.5928 61.7073H26.8293V64.4707H29.5928V61.7073Z" fill="black"/>
<path d="M32.2756 61.7073H29.5122V64.4707H32.2756V61.7073Z" fill="black"/>
<path d="M37.6413 61.7073H34.8779V64.4707H37.6413V61.7073Z" fill="black"/>
<path d="M43.0073 61.7073H40.2439V64.4707H43.0073V61.7073Z" fill="black"/>
<path d="M45.6902 61.7073H42.9268V64.4707H45.6902V61.7073Z" fill="black"/>
<path d="M48.3733 61.7073H45.6099V64.4707H48.3733V61.7073Z" fill="black"/>
<path d="M51.0561 61.7073H48.2927V64.4707H51.0561V61.7073Z" fill="black"/>
<path d="M53.739 61.7073H50.9756V64.4707H53.739V61.7073Z" fill="black"/>
<path d="M64.4707 61.7073H61.7073V64.4707H64.4707V61.7073Z" fill="black"/>
<path d="M67.1536 61.7073H64.3901V64.4707H67.1536V61.7073Z" fill="black"/>
<path d="M80.5683 61.7073H77.8049V64.4707H80.5683V61.7073Z" fill="black"/>
<path d="M83.2512 61.7073H80.4878V64.4707H83.2512V61.7073Z" fill="black"/>
<path d="M85.9341 61.7073H83.1707V64.4707H85.9341V61.7073Z" fill="black"/>
<path d="M99.3489 61.7073H96.5854V64.4707H99.3489V61.7073Z" fill="black"/>
<path d="M8.12938 64.3901H5.36597V67.1536H8.12938V64.3901Z" fill="black"/>
<path d="M16.178 64.3901H13.4146V67.1536H16.178V64.3901Z" fill="black"/>
<path d="M18.8611 64.3901H16.0977V67.1536H18.8611V64.3901Z" fill="black"/>
<path d="M24.2268 64.3901H21.4634V67.1536H24.2268V64.3901Z" fill="black"/>
<path d="M34.9585 64.3901H32.1951V67.1536H34.9585V64.3901Z" fill="black"/>
<path d="M37.6413 64.3901H34.8779V67.1536H37.6413V64.3901Z" fill="black"/>
<path d="M43.0073 64.3901H40.2439V67.1536H43.0073V64.3901Z" fill="black"/>
<path d="M48.3733 64.3901H45.6099V67.1536H48.3733V64.3901Z" fill="black"/>
<path d="M56.4219 64.3901H53.6584V67.1536H56.4219V64.3901Z" fill="black"/>
<path d="M59.105 64.3901H56.3416V67.1536H59.105V64.3901Z" fill="black"/>
<path d="M61.7878 64.3901H59.0244V67.1536H61.7878V64.3901Z" fill="black"/>
<path d="M67.1536 64.3901H64.3901V67.1536H67.1536V64.3901Z" fill="black"/>
<path d="M69.8367 64.3901H67.0732V67.1536H69.8367V64.3901Z" fill="black"/>
<path d="M72.5195 64.3901H69.7561V67.1536H72.5195V64.3901Z" fill="black"/>
<path d="M77.8855 64.3901H75.1221V67.1536H77.8855V64.3901Z" fill="black"/>
<path d="M83.2512 64.3901H80.4878V67.1536H83.2512V64.3901Z" fill="black"/>
<path d="M85.9341 64.3901H83.1707V67.1536H85.9341V64.3901Z" fill="black"/>
<path d="M91.3 64.3901H88.5366V67.1536H91.3V64.3901Z" fill="black"/>
<path d="M93.9829 64.3901H91.2195V67.1536H93.9829V64.3901Z" fill="black"/>
<path d="M99.3489 64.3901H96.5854V67.1536H99.3489V64.3901Z" fill="black"/>
<path d="M2.76341 67.0732H0V69.8367H2.76341V67.0732Z" fill="black"/>
<path d="M5.44628 67.0732H2.68286V69.8367H5.44628V67.0732Z" fill="black"/>
<path d="M8.12938 67.0732H5.36597V69.8367H8.12938V67.0732Z" fill="black"/>
<path d="M13.4951 67.0732H10.7317V69.8367H13.4951V67.0732Z" fill="black"/>
<path d="M16.178 67.0732H13.4146V69.8367H16.178V67.0732Z" fill="black"/>
<path d="M21.5439 67.0732H18.7805V69.8367H21.5439V67.0732Z" fill="black"/>
<path d="M24.2268 67.0732H21.4634V69.8367H24.2268V67.0732Z" fill="black"/>
<path d="M26.9097 67.0732H24.1462V69.8367H26.9097V67.0732Z" fill="black"/>
<path d="M29.5928 67.0732H26.8293V69.8367H29.5928V67.0732Z" fill="black"/>
<path d="M32.2756 67.0732H29.5122V69.8367H32.2756V67.0732Z" fill="black"/>
<path d="M45.6902 67.0732H42.9268V69.8367H45.6902V67.0732Z" fill="black"/>
<path d="M48.3733 67.0732H45.6099V69.8367H48.3733V67.0732Z" fill="black"/>
<path d="M51.0561 67.0732H48.2927V69.8367H51.0561V67.0732Z" fill="black"/>
<path d="M53.739 67.0732H50.9756V69.8367H53.739V67.0732Z" fill="black"/>
<path d="M59.105 67.0732H56.3416V69.8367H59.105V67.0732Z" fill="black"/>
<path d="M75.2024 67.0732H72.439V69.8367H75.2024V67.0732Z" fill="black"/>
<path d="M80.5683 67.0732H77.8049V69.8367H80.5683V67.0732Z" fill="black"/>
<path d="M83.2512 67.0732H80.4878V69.8367H83.2512V67.0732Z" fill="black"/>
<path d="M85.9341 67.0732H83.1707V69.8367H85.9341V67.0732Z" fill="black"/>
<path d="M91.3 67.0732H88.5366V69.8367H91.3V67.0732Z" fill="black"/>
<path d="M2.76341 69.7561H0V72.5195H2.76341V69.7561Z" fill="black"/>
<path d="M8.12938 69.7561H5.36597V72.5195H8.12938V69.7561Z" fill="black"/>
<path d="M16.178 69.7561H13.4146V72.5195H16.178V69.7561Z" fill="black"/>
<path d="M18.8611 69.7561H16.0977V72.5195H18.8611V69.7561Z" fill="black"/>
<path d="M24.2268 69.7561H21.4634V72.5195H24.2268V69.7561Z" fill="black"/>
<path d="M26.9097 69.7561H24.1462V72.5195H26.9097V69.7561Z" fill="black"/>
<path d="M29.5928 69.7561H26.8293V72.5195H29.5928V69.7561Z" fill="black"/>
<path d="M34.9585 69.7561H32.1951V72.5195H34.9585V69.7561Z" fill="black"/>
<path d="M37.6413 69.7561H34.8779V72.5195H37.6413V69.7561Z" fill="black"/>
<path d="M40.3244 69.7561H37.561V72.5195H40.3244V69.7561Z" fill="black"/>
<path d="M43.0073 69.7561H40.2439V72.5195H43.0073V69.7561Z" fill="black"/>
<path d="M45.6902 69.7561H42.9268V72.5195H45.6902V69.7561Z" fill="black"/>
<path d="M48.3733 69.7561H45.6099V72.5195H48.3733V69.7561Z" fill="black"/>
<path d="M64.4707 69.7561H61.7073V72.5195H64.4707V69.7561Z" fill="black"/>
<path d="M67.1536 69.7561H64.3901V72.5195H67.1536V69.7561Z" fill="black"/>
<path d="M69.8367 69.7561H67.0732V72.5195H69.8367V69.7561Z" fill="black"/>
<path d="M75.2024 69.7561H72.439V72.5195H75.2024V69.7561Z" fill="black"/>
<path d="M83.2512 69.7561H80.4878V72.5195H83.2512V69.7561Z" fill="black"/>
<path d="M91.3 69.7561H88.5366V72.5195H91.3V69.7561Z" fill="black"/>
<path d="M93.9829 69.7561H91.2195V72.5195H93.9829V69.7561Z" fill="black"/>
<path d="M96.6658 69.7561H93.9023V72.5195H96.6658V69.7561Z" fill="black"/>
<path d="M99.3489 69.7561H96.5854V72.5195H99.3489V69.7561Z" fill="black"/>
<path d="M2.76341 72.439H0V75.2024H2.76341V72.439Z" fill="black"/>
<path d="M10.8122 72.439H8.04883V75.2024H10.8122V72.439Z" fill="black"/>
<path d="M13.4951 72.439H10.7317V75.2024H13.4951V72.439Z" fill="black"/>
<path d="M16.178 72.439H13.4146V75.2024H16.178V72.439Z" fill="black"/>
<path d="M21.5439 72.439H18.7805V75.2024H21.5439V72.439Z" fill="black"/>
<path d="M24.2268 72.439H21.4634V75.2024H24.2268V72.439Z" fill="black"/>
<path d="M29.5928 72.439H26.8293V75.2024H29.5928V72.439Z" fill="black"/>
<path d="M32.2756 72.439H29.5122V75.2024H32.2756V72.439Z" fill="black"/>
<path d="M34.9585 72.439H32.1951V75.2024H34.9585V72.439Z" fill="black"/>
<path d="M37.6413 72.439H34.8779V75.2024H37.6413V72.439Z" fill="black"/>
<path d="M43.0073 72.439H40.2439V75.2024H43.0073V72.439Z" fill="black"/>
<path d="M45.6902 72.439H42.9268V75.2024H45.6902V72.439Z" fill="black"/>
<path d="M48.3733 72.439H45.6099V75.2024H48.3733V72.439Z" fill="black"/>
<path d="M51.0561 72.439H48.2927V75.2024H51.0561V72.439Z" fill="black"/>
<path d="M53.739 72.439H50.9756V75.2024H53.739V72.439Z" fill="black"/>
<path d="M56.4219 72.439H53.6584V75.2024H56.4219V72.439Z" fill="black"/>
<path d="M61.7878 72.439H59.0244V75.2024H61.7878V72.439Z" fill="black"/>
<path d="M64.4707 72.439H61.7073V75.2024H64.4707V72.439Z" fill="black"/>
<path d="M80.5683 72.439H77.8049V75.2024H80.5683V72.439Z" fill="black"/>
<path d="M88.6172 72.439H85.8538V75.2024H88.6172V72.439Z" fill="black"/>
<path d="M91.3 72.439H88.5366V75.2024H91.3V72.439Z" fill="black"/>
<path d="M99.3489 72.439H96.5854V75.2024H99.3489V72.439Z" fill="black"/>
<path d="M2.76341 75.1221H0V77.8855H2.76341V75.1221Z" fill="black"/>
<path d="M8.12938 75.1221H5.36597V77.8855H8.12938V75.1221Z" fill="black"/>
<path d="M13.4951 75.1221H10.7317V77.8855H13.4951V75.1221Z" fill="black"/>
<path d="M18.8611 75.1221H16.0977V77.8855H18.8611V75.1221Z" fill="black"/>
<path d="M32.2756 75.1221H29.5122V77.8855H32.2756V75.1221Z" fill="black"/>
<path d="M37.6413 75.1221H34.8779V77.8855H37.6413V75.1221Z" fill="black"/>
<path d="M40.3244 75.1221H37.561V77.8855H40.3244V75.1221Z" fill="black"/>
<path d="M45.6902 75.1221H42.9268V77.8855H45.6902V75.1221Z" fill="black"/>
<path d="M56.4219 75.1221H53.6584V77.8855H56.4219V75.1221Z" fill="black"/>
<path d="M64.4707 75.1221H61.7073V77.8855H64.4707V75.1221Z" fill="black"/>
<path d="M67.1536 75.1221H64.3901V77.8855H67.1536V75.1221Z" fill="black"/>
<path d="M69.8367 75.1221H67.0732V77.8855H69.8367V75.1221Z" fill="black"/>
<path d="M72.5195 75.1221H69.7561V77.8855H72.5195V75.1221Z" fill="black"/>
<path d="M77.8855 75.1221H75.1221V77.8855H77.8855V75.1221Z" fill="black"/>
<path d="M80.5683 75.1221H77.8049V77.8855H80.5683V75.1221Z" fill="black"/>
<path d="M83.2512 75.1221H80.4878V77.8855H83.2512V75.1221Z" fill="black"/>
<path d="M85.9341 75.1221H83.1707V77.8855H85.9341V75.1221Z" fill="black"/>
<path d="M88.6172 75.1221H85.8538V77.8855H88.6172V75.1221Z" fill="black"/>
<path d="M91.3 75.1221H88.5366V77.8855H91.3V75.1221Z" fill="black"/>
<path d="M96.6658 75.1221H93.9023V77.8855H96.6658V75.1221Z" fill="black"/>
<path d="M24.2268 77.8049H21.4634V80.5683H24.2268V77.8049Z" fill="black"/>
<path d="M26.9097 77.8049H24.1462V80.5683H26.9097V77.8049Z" fill="black"/>
<path d="M29.5928 77.8049H26.8293V80.5683H29.5928V77.8049Z" fill="black"/>
<path d="M32.2756 77.8049H29.5122V80.5683H32.2756V77.8049Z" fill="black"/>
<path d="M34.9585 77.8049H32.1951V80.5683H34.9585V77.8049Z" fill="black"/>
<path d="M37.6413 77.8049H34.8779V80.5683H37.6413V77.8049Z" fill="black"/>
<path d="M40.3244 77.8049H37.561V80.5683H40.3244V77.8049Z" fill="black"/>
<path d="M43.0073 77.8049H40.2439V80.5683H43.0073V77.8049Z" fill="black"/>
<path d="M51.0561 77.8049H48.2927V80.5683H51.0561V77.8049Z" fill="black"/>
<path d="M59.105 77.8049H56.3416V80.5683H59.105V77.8049Z" fill="black"/>
<path d="M64.4707 77.8049H61.7073V80.5683H64.4707V77.8049Z" fill="black"/>
<path d="M67.1536 77.8049H64.3901V80.5683H67.1536V77.8049Z" fill="black"/>
<path d="M75.2024 77.8049H72.439V80.5683H75.2024V77.8049Z" fill="black"/>
<path d="M77.8855 77.8049H75.1221V80.5683H77.8855V77.8049Z" fill="black"/>
<path d="M88.6172 77.8049H85.8538V80.5683H88.6172V77.8049Z" fill="black"/>
<path d="M26.9097 80.4878H24.1462V83.2512H26.9097V80.4878Z" fill="black"/>
<path d="M29.5928 80.4878H26.8293V83.2512H29.5928V80.4878Z" fill="black"/>
<path d="M34.9585 80.4878H32.1951V83.2512H34.9585V80.4878Z" fill="black"/>
<path d="M37.6413 80.4878H34.8779V83.2512H37.6413V80.4878Z" fill="black"/>
<path d="M40.3244 80.4878H37.561V83.2512H40.3244V80.4878Z" fill="black"/>
<path d="M45.6902 80.4878H42.9268V83.2512H45.6902V80.4878Z" fill="black"/>
<path d="M51.0561 80.4878H48.2927V83.2512H51.0561V80.4878Z" fill="black"/>
<path d="M53.739 80.4878H50.9756V83.2512H53.739V80.4878Z" fill="black"/>
<path d="M56.4219 80.4878H53.6584V83.2512H56.4219V80.4878Z" fill="black"/>
<path d="M61.7878 80.4878H59.0244V83.2512H61.7878V80.4878Z" fill="black"/>
<path d="M69.8367 80.4878H67.0732V83.2512H69.8367V80.4878Z" fill="black"/>
<path d="M77.8855 80.4878H75.1221V83.2512H77.8855V80.4878Z" fill="black"/>
<path d="M83.2512 80.4878H80.4878V83.2512H83.2512V80.4878Z" fill="black"/>
<path d="M88.6172 80.4878H85.8538V83.2512H88.6172V80.4878Z" fill="black"/>
<path d="M91.3 80.4878H88.5366V83.2512H91.3V80.4878Z" fill="black"/>
<path d="M96.6658 80.4878H93.9023V83.2512H96.6658V80.4878Z" fill="black"/>
<path d="M99.3489 80.4878H96.5854V83.2512H99.3489V80.4878Z" fill="black"/>
<path d="M26.9097 83.1707H24.1462V85.9341H26.9097V83.1707Z" fill="black"/>
<path d="M34.9585 83.1707H32.1951V85.9341H34.9585V83.1707Z" fill="black"/>
<path d="M37.6413 83.1707H34.8779V85.9341H37.6413V83.1707Z" fill="black"/>
<path d="M45.6902 83.1707H42.9268V85.9341H45.6902V83.1707Z" fill="black"/>
<path d="M48.3733 83.1707H45.6099V85.9341H48.3733V83.1707Z" fill="black"/>
<path d="M51.0561 83.1707H48.2927V85.9341H51.0561V83.1707Z" fill="black"/>
<path d="M53.739 83.1707H50.9756V85.9341H53.739V83.1707Z" fill="black"/>
<path d="M56.4219 83.1707H53.6584V85.9341H56.4219V83.1707Z" fill="black"/>
<path d="M59.105 83.1707H56.3416V85.9341H59.105V83.1707Z" fill="black"/>
<path d="M75.2024 83.1707H72.439V85.9341H75.2024V83.1707Z" fill="black"/>
<path d="M77.8855 83.1707H75.1221V85.9341H77.8855V83.1707Z" fill="black"/>
<path d="M88.6172 83.1707H85.8538V85.9341H88.6172V83.1707Z" fill="black"/>
<path d="M96.6658 83.1707H93.9023V85.9341H96.6658V83.1707Z" fill="black"/>
<path d="M24.2268 85.8538H21.4634V88.6172H24.2268V85.8538Z" fill="black"/>
<path d="M29.5928 85.8538H26.8293V88.6172H29.5928V85.8538Z" fill="black"/>
<path d="M34.9585 85.8538H32.1951V88.6172H34.9585V85.8538Z" fill="black"/>
<path d="M37.6413 85.8538H34.8779V88.6172H37.6413V85.8538Z" fill="black"/>
<path d="M43.0073 85.8538H40.2439V88.6172H43.0073V85.8538Z" fill="black"/>
<path d="M56.4219 85.8538H53.6584V88.6172H56.4219V85.8538Z" fill="black"/>
<path d="M59.105 85.8538H56.3416V88.6172H59.105V85.8538Z" fill="black"/>
<path d="M61.7878 85.8538H59.0244V88.6172H61.7878V85.8538Z" fill="black"/>
<path d="M64.4707 85.8538H61.7073V88.6172H64.4707V85.8538Z" fill="black"/>
<path d="M67.1536 85.8538H64.3901V88.6172H67.1536V85.8538Z" fill="black"/>
<path d="M69.8367 85.8538H67.0732V88.6172H69.8367V85.8538Z" fill="black"/>
<path d="M72.5195 85.8538H69.7561V88.6172H72.5195V85.8538Z" fill="black"/>
<path d="M75.2024 85.8538H72.439V88.6172H75.2024V85.8538Z" fill="black"/>
<path d="M77.8855 85.8538H75.1221V88.6172H77.8855V85.8538Z" fill="black"/>
<path d="M80.5683 85.8538H77.8049V88.6172H80.5683V85.8538Z" fill="black"/>
<path d="M83.2512 85.8538H80.4878V88.6172H83.2512V85.8538Z" fill="black"/>
<path d="M85.9341 85.8538H83.1707V88.6172H85.9341V85.8538Z" fill="black"/>
<path d="M88.6172 85.8538H85.8538V88.6172H88.6172V85.8538Z" fill="black"/>
<path d="M93.9829 85.8538H91.2195V88.6172H93.9829V85.8538Z" fill="black"/>
<path d="M96.6658 85.8538H93.9023V88.6172H96.6658V85.8538Z" fill="black"/>
<path d="M99.3489 85.8538H96.5854V88.6172H99.3489V85.8538Z" fill="black"/>
<path d="M24.2268 88.5366H21.4634V91.3H24.2268V88.5366Z" fill="black"/>
<path d="M26.9097 88.5366H24.1462V91.3H26.9097V88.5366Z" fill="black"/>
<path d="M37.6413 88.5366H34.8779V91.3H37.6413V88.5366Z" fill="black"/>
<path d="M40.3244 88.5366H37.561V91.3H40.3244V88.5366Z" fill="black"/>
<path d="M51.0561 88.5366H48.2927V91.3H51.0561V88.5366Z" fill="black"/>
<path d="M59.105 88.5366H56.3416V91.3H59.105V88.5366Z" fill="black"/>
<path d="M67.1536 88.5366H64.3901V91.3H67.1536V88.5366Z" fill="black"/>
<path d="M77.8855 88.5366H75.1221V91.3H77.8855V88.5366Z" fill="black"/>
<path d="M83.2512 88.5366H80.4878V91.3H83.2512V88.5366Z" fill="black"/>
<path d="M88.6172 88.5366H85.8538V91.3H88.6172V88.5366Z" fill="black"/>
<path d="M93.9829 88.5366H91.2195V91.3H93.9829V88.5366Z" fill="black"/>
<path d="M24.2268 91.2195H21.4634V93.9829H24.2268V91.2195Z" fill="black"/>
<path d="M29.5928 91.2195H26.8293V93.9829H29.5928V91.2195Z" fill="black"/>
<path d="M34.9585 91.2195H32.1951V93.9829H34.9585V91.2195Z" fill="black"/>
<path d="M45.6902 91.2195H42.9268V93.9829H45.6902V91.2195Z" fill="black"/>
<path d="M51.0561 91.2195H48.2927V93.9829H51.0561V91.2195Z" fill="black"/>
<path d="M53.739 91.2195H50.9756V93.9829H53.739V91.2195Z" fill="black"/>
<path d="M56.4219 91.2195H53.6584V93.9829H56.4219V91.2195Z" fill="black"/>
<path d="M67.1536 91.2195H64.3901V93.9829H67.1536V91.2195Z" fill="black"/>
<path d="M69.8367 91.2195H67.0732V93.9829H69.8367V91.2195Z" fill="black"/>
<path d="M75.2024 91.2195H72.439V93.9829H75.2024V91.2195Z" fill="black"/>
<path d="M77.8855 91.2195H75.1221V93.9829H77.8855V91.2195Z" fill="black"/>
<path d="M80.5683 91.2195H77.8049V93.9829H80.5683V91.2195Z" fill="black"/>
<path d="M85.9341 91.2195H83.1707V93.9829H85.9341V91.2195Z" fill="black"/>
<path d="M91.3 91.2195H88.5366V93.9829H91.3V91.2195Z" fill="black"/>
<path d="M93.9829 91.2195H91.2195V93.9829H93.9829V91.2195Z" fill="black"/>
<path d="M99.3489 91.2195H96.5854V93.9829H99.3489V91.2195Z" fill="black"/>
<path d="M32.2756 93.9023H29.5122V96.6658H32.2756V93.9023Z" fill="black"/>
<path d="M34.9585 93.9023H32.1951V96.6658H34.9585V93.9023Z" fill="black"/>
<path d="M37.6413 93.9023H34.8779V96.6658H37.6413V93.9023Z" fill="black"/>
<path d="M43.0073 93.9023H40.2439V96.6658H43.0073V93.9023Z" fill="black"/>
<path d="M45.6902 93.9023H42.9268V96.6658H45.6902V93.9023Z" fill="black"/>
<path d="M51.0561 93.9023H48.2927V96.6658H51.0561V93.9023Z" fill="black"/>
<path d="M53.739 93.9023H50.9756V96.6658H53.739V93.9023Z" fill="black"/>
<path d="M61.7878 93.9023H59.0244V96.6658H61.7878V93.9023Z" fill="black"/>
<path d="M77.8855 93.9023H75.1221V96.6658H77.8855V93.9023Z" fill="black"/>
<path d="M80.5683 93.9023H77.8049V96.6658H80.5683V93.9023Z" fill="black"/>
<path d="M85.9341 93.9023H83.1707V96.6658H85.9341V93.9023Z" fill="black"/>
<path d="M99.3489 93.9023H96.5854V96.6658H99.3489V93.9023Z" fill="black"/>
<path d="M26.9097 96.5854H24.1462V99.3489H26.9097V96.5854Z" fill="black"/>
<path d="M43.0073 96.5854H40.2439V99.3489H43.0073V96.5854Z" fill="black"/>
<path d="M48.3733 96.5854H45.6099V99.3489H48.3733V96.5854Z" fill="black"/>
<path d="M51.0561 96.5854H48.2927V99.3489H51.0561V96.5854Z" fill="black"/>
<path d="M53.739 96.5854H50.9756V99.3489H53.739V96.5854Z" fill="black"/>
<path d="M59.105 96.5854H56.3416V99.3489H59.105V96.5854Z" fill="black"/>
<path d="M61.7878 96.5854H59.0244V99.3489H61.7878V96.5854Z" fill="black"/>
<path d="M67.1536 96.5854H64.3901V99.3489H67.1536V96.5854Z" fill="black"/>
<path d="M69.8367 96.5854H67.0732V99.3489H69.8367V96.5854Z" fill="black"/>
<path d="M72.5195 96.5854H69.7561V99.3489H72.5195V96.5854Z" fill="black"/>
<path d="M80.5683 96.5854H77.8049V99.3489H80.5683V96.5854Z" fill="black"/>
<path d="M93.9829 96.5854H91.2195V99.3489H93.9829V96.5854Z" fill="black"/>
<path d="M96.6658 96.5854H93.9023V99.3489H96.6658V96.5854Z" fill="black"/>
<path d="M99.3489 96.5854H96.5854V99.3489H99.3489V96.5854Z" fill="black"/>
<path d="M0 0V18.7805H18.7805V0H0ZM16.0976 16.0976H2.68293V2.68293H16.0976V16.0976Z" fill="black"/>
<path d="M80.4878 0V18.7805H99.2683V0H80.4878ZM96.5854 16.0976H83.1707V2.68293H96.5854V16.0976Z" fill="black"/>
<path d="M0 80.4878V99.2683H18.7805V80.4878H0ZM16.0976 96.5854H2.68293V83.1707H16.0976V96.5854Z" fill="black"/>
<path d="M13.4147 5.36597H5.36597V13.4147H13.4147V5.36597Z" fill="black"/>
<path d="M93.9025 5.36597H85.8538V13.4147H93.9025V5.36597Z" fill="black"/>
<path d="M13.4147 85.8538H5.36597V93.9025H13.4147V85.8538Z" fill="black"/>
</svg>
